<svg width="100" height="100" viewBox="0 0 100 100" fill="none" xmlns="http://www.w3.org/2000/svg">
<circle cx="48" cy="48" r="48" fill="#E9ECEF"/>
<g opacity="0.35">
<path fill-rule="evenodd" clip-rule="evenodd" d="M68.2142 60.5602L68.8542 63.6002C69.4607 66.2285 68.8619 68.9903 67.2213 71.1313C65.5807 73.2723 63.0698 74.5689 60.3742 74.6669H35.6276C32.932 74.5689 30.4211 73.2723 28.7805 71.1313C27.1399 68.9903 26.5411 66.2285 27.1476 63.6002L27.7876 60.5602C28.5237 56.445 32.0612 53.4207 36.2409 53.3336H59.7609C63.9406 53.4207 67.4781 56.445 68.2142 60.5602ZM60.3742 70.6402C61.7284 70.6245 63.0027 69.9972 63.8409 68.9336V68.9602C64.8694 67.6701 65.2701 65.989 64.9342 64.3736L64.2942 61.3336C63.9391 59.0807 62.0399 57.3938 59.7609 57.3069H36.2409C33.9619 57.3938 32.0627 59.0807 31.7076 61.3336L31.0676 64.3736C30.74 65.9805 31.1403 67.6499 32.1609 68.9336C32.9991 69.9972 34.2735 70.6245 35.6276 70.6402H60.3742Z" fill="#212529"/>
<path fill-rule="evenodd" clip-rule="evenodd" d="M49.3342 48.0002H46.6675C40.7765 48.0002 36.0009 43.2246 36.0009 37.3335V30.2935C35.9938 27.915 36.9355 25.6319 38.6173 23.95C40.2992 22.2681 42.5824 21.3264 44.9609 21.3335H51.0409C53.4194 21.3264 55.7025 22.2681 57.3844 23.95C59.0663 25.6319 60.008 27.915 60.0009 30.2935V37.3335C60.0009 43.2246 55.2252 48.0002 49.3342 48.0002ZM44.9609 25.3335C42.2215 25.3335 40.0009 27.5542 40.0009 30.2935V37.3335C40.0009 41.0154 42.9856 44.0002 46.6675 44.0002H49.3342C53.0161 44.0002 56.0009 41.0154 56.0009 37.3335V30.2935C56.0009 28.9781 55.4783 27.7165 54.5481 26.7863C53.6179 25.8561 52.3563 25.3335 51.0409 25.3335H44.9609Z" fill="#212529"/>
</g>
<circle cx="84" cy="84" r="14" fill="#192655" stroke="white" stroke-width="4"/>
<path fill-rule="evenodd" clip-rule="evenodd" d="M81.1934 86.1798L81.68 83.9065C81.7509 83.5905 81.9105 83.3014 82.14 83.0731L86.5867 78.6665C87.0376 78.2071 87.6499 77.9416 88.2934 77.9265C88.7787 77.9195 89.2467 78.1067 89.5934 78.4465C90.3508 79.3414 90.2531 80.6779 89.3734 81.4531L84.9267 85.8998C84.6984 86.1293 84.4093 86.2889 84.0934 86.3598L81.82 86.8465H81.6934C81.5272 86.8528 81.3685 86.7772 81.2687 86.6442C81.1689 86.5111 81.1407 86.3376 81.1934 86.1798ZM82.8467 83.7865C82.7533 83.877 82.6884 83.9928 82.66 84.1198L82.3334 85.6731L83.8867 85.3398C84.0137 85.3114 84.1295 85.2465 84.22 85.1531L88.6667 80.7065C89.1538 80.3165 89.2505 79.6134 88.8867 79.1065C88.7274 78.9543 88.5136 78.8726 88.2934 78.8798C87.9138 78.895 87.555 79.0577 87.2934 79.3331L82.8467 83.7865Z" fill="white"/>
<path d="M89.2734 83.2865C88.9987 83.29 88.777 83.5118 88.7734 83.7865V87.5798C88.7823 88.116 88.5756 88.6333 88.1995 89.0156C87.8235 89.3979 87.3096 89.6132 86.7734 89.6131H80.4201C79.3116 89.5914 78.4235 88.6884 78.4201 87.5798V81.2531C78.4383 80.1432 79.3433 79.253 80.4534 79.2531H84.2467C84.5229 79.2531 84.7467 79.0293 84.7467 78.7531C84.7467 78.477 84.5229 78.2531 84.2467 78.2531H80.4201C78.7577 78.253 77.405 79.5909 77.3867 81.2531V87.5798C77.3867 89.2551 78.7448 90.6131 80.4201 90.6131H86.7467C88.4194 90.6094 89.7734 89.2525 89.7734 87.5798V83.7865C89.7698 83.5118 89.548 83.29 89.2734 83.2865Z" fill="white"/>
</svg>
