<svg width="24" height="25" viewBox="0 0 24 25" fill="none" xmlns="http://www.w3.org/2000/svg">
<path d="M19.0588 10.1242L17.1681 8.23346C15.6539 6.77778 13.6376 5.94118 11.5294 5.94118C10.0402 5.94118 8.5845 6.38277 7.3463 7.21011C6.10809 8.03745 5.14303 9.21339 4.57315 10.5892C4.00326 11.965 3.85415 13.4789 4.14468 14.9395C4.4352 16.4001 5.15231 17.7417 6.20532 18.7947C7.25832 19.8477 8.59994 20.5648 10.0605 20.8553C11.5211 21.1458 13.035 20.9967 14.4108 20.4269C15.7866 19.857 16.9625 18.8919 17.7899 17.6537C18.2625 16.9463 18.6093 16.168 18.8197 15.3529M19.0588 10.1242V5M19.0588 10.1242H13.9346" stroke="#192655" stroke-width="2" stroke-miterlimit="10" stroke-linecap="round" stroke-linejoin="round"/>
</svg>
