<svg xmlns="http://www.w3.org/2000/svg" viewBox="0 0 100 100" preserveAspectRatio="xMidYMid" width="110" height="110" style="shape-rendering: auto; display: block; background: rgb(255, 255, 255);" xmlns:xlink="http://www.w3.org/1999/xlink"><g><g transform="rotate(0 50 50)">
  <rect fill="#192655" height="13" width="6" ry="6.5" rx="3" y="17.5" x="47">
    <animate repeatCount="indefinite" begin="-1.3574660633484164s" dur="1.4705882352941175s" keyTimes="0;1" values="1;0" attributeName="opacity"></animate>
  </rect>
</g><g transform="rotate(27.692307692307693 50 50)">
  <rect fill="#192655" height="13" width="6" ry="6.5" rx="3" y="17.5" x="47">
    <animate repeatCount="indefinite" begin="-1.244343891402715s" dur="1.4705882352941175s" keyTimes="0;1" values="1;0" attributeName="opacity"></animate>
  </rect>
</g><g transform="rotate(55.38461538461539 50 50)">
  <rect fill="#192655" height="13" width="6" ry="6.5" rx="3" y="17.5" x="47">
    <animate repeatCount="indefinite" begin="-1.1312217194570136s" dur="1.4705882352941175s" keyTimes="0;1" values="1;0" attributeName="opacity"></animate>
  </rect>
</g><g transform="rotate(83.07692307692308 50 50)">
  <rect fill="#192655" height="13" width="6" ry="6.5" rx="3" y="17.5" x="47">
    <animate repeatCount="indefinite" begin="-1.0180995475113122s" dur="1.4705882352941175s" keyTimes="0;1" values="1;0" attributeName="opacity"></animate>
  </rect>
</g><g transform="rotate(110.76923076923077 50 50)">
  <rect fill="#192655" height="13" width="6" ry="6.5" rx="3" y="17.5" x="47">
    <animate repeatCount="indefinite" begin="-0.9049773755656109s" dur="1.4705882352941175s" keyTimes="0;1" values="1;0" attributeName="opacity"></animate>
  </rect>
</g><g transform="rotate(138.46153846153845 50 50)">
  <rect fill="#192655" height="13" width="6" ry="6.5" rx="3" y="17.5" x="47">
    <animate repeatCount="indefinite" begin="-0.7918552036199095s" dur="1.4705882352941175s" keyTimes="0;1" values="1;0" attributeName="opacity"></animate>
  </rect>
</g><g transform="rotate(166.15384615384616 50 50)">
  <rect fill="#192655" height="13" width="6" ry="6.5" rx="3" y="17.5" x="47">
    <animate repeatCount="indefinite" begin="-0.6787330316742082s" dur="1.4705882352941175s" keyTimes="0;1" values="1;0" attributeName="opacity"></animate>
  </rect>
</g><g transform="rotate(193.84615384615384 50 50)">
  <rect fill="#192655" height="13" width="6" ry="6.5" rx="3" y="17.5" x="47">
    <animate repeatCount="indefinite" begin="-0.5656108597285068s" dur="1.4705882352941175s" keyTimes="0;1" values="1;0" attributeName="opacity"></animate>
  </rect>
</g><g transform="rotate(221.53846153846155 50 50)">
  <rect fill="#192655" height="13" width="6" ry="6.5" rx="3" y="17.5" x="47">
    <animate repeatCount="indefinite" begin="-0.45248868778280543s" dur="1.4705882352941175s" keyTimes="0;1" values="1;0" attributeName="opacity"></animate>
  </rect>
</g><g transform="rotate(249.23076923076923 50 50)">
  <rect fill="#192655" height="13" width="6" ry="6.5" rx="3" y="17.5" x="47">
    <animate repeatCount="indefinite" begin="-0.3393665158371041s" dur="1.4705882352941175s" keyTimes="0;1" values="1;0" attributeName="opacity"></animate>
  </rect>
</g><g transform="rotate(276.9230769230769 50 50)">
  <rect fill="#192655" height="13" width="6" ry="6.5" rx="3" y="17.5" x="47">
    <animate repeatCount="indefinite" begin="-0.22624434389140272s" dur="1.4705882352941175s" keyTimes="0;1" values="1;0" attributeName="opacity"></animate>
  </rect>
</g><g transform="rotate(304.61538461538464 50 50)">
  <rect fill="#192655" height="13" width="6" ry="6.5" rx="3" y="17.5" x="47">
    <animate repeatCount="indefinite" begin="-0.11312217194570136s" dur="1.4705882352941175s" keyTimes="0;1" values="1;0" attributeName="opacity"></animate>
  </rect>
</g><g transform="rotate(332.3076923076923 50 50)">
  <rect fill="#192655" height="13" width="6" ry="6.5" rx="3" y="17.5" x="47">
    <animate repeatCount="indefinite" begin="0s" dur="1.4705882352941175s" keyTimes="0;1" values="1;0" attributeName="opacity"></animate>
  </rect>
</g><g></g></g><!-- [ldio] generated by https://loading.io --></svg>